<svg width="338" height="178" viewBox="0 0 338 178" xmlns="http://www.w3.org/2000/svg">
  <!-- Background -->
  <rect width="338" height="178" fill="#FFFFFF"/>
  
  <!-- Root node: 今日信息地图 -->
  <rect x="8" y="64" width="120" height="52" rx="4" ry="4" fill="#F0F4FC" stroke="#000000" stroke-width="1"/>
  <text x="68" y="91" text-anchor="middle" fill="#1F2329" font-family="Noto Sans CJK SC" font-size="14">今日信息地图</text>
  
  <!-- Node 1: AI重塑产品工作流 -->
  <rect x="188" y="8" width="142" height="52" rx="4" ry="4" fill="#F0F4FC" stroke="#000000" stroke-width="1"/>
  <text x="259" y="35" text-anchor="middle" fill="#1F2329" font-family="Noto Sans CJK SC" font-size="14">AI重塑产品工作流</text>
  
  <!-- Node 2: 消费硬件IPO之路 -->
  <rect x="188" y="120" width="142" height="52" rx="4" ry="4" fill="#F0F4FC" stroke="#000000" stroke-width="1"/>
  <text x="259" y="147" text-anchor="middle" fill="#1F2329" font-family="Noto Sans CJK SC" font-size="14">消费硬件IPO之路</text>
  
  <!-- Connector 1: Root -> Node 1 (curved) -->
  <path d="M 128 88 Q 142 88 150 80 Q 178 68 188 40" stroke="#000000" stroke-width="1.5" fill="none"/>
  <polygon points="188 40 195 40 191 34" fill="#000000"/>
  
  <!-- Connector 2: Root -> Node 2 (curved) -->
  <path d="M 128 92 Q 142 92 150 100 Q 178 112 188 140" stroke="#000000" stroke-width="1.5" fill="none"/>
  <polygon points="188 140 195 146 184 146" fill="#000000"/>
</svg>
